<svg id="logos" xmlns="http://www.w3.org/2000/svg" width="300" height="130" viewBox="0 0 300 130"><title>twint-logo</title><polygon points="231.46 45.84 201.77 45.84 201.77 52.99 212.39 52.99 212.39 83.67 220.79 83.67 220.79 52.99 231.46 52.99 231.46 45.84"/><polygon points="96.61 45.84 66.92 45.84 66.92 52.99 77.59 52.99 77.59 83.67 85.99 83.67 85.99 52.99 96.61 52.99 96.61 45.84"/><path d="M182.54,44.64c-9.33,0-14.54,6.06-14.54,14.77V83.67h8.3V59.2c0-3.81,2.22-6.73,6.34-6.73s6.29,3.44,6.29,6.73V83.67h8.3V59.41c0-8.71-5.36-14.77-14.69-14.77Z"/><polygon points="151.15 45.84 151.15 83.67 159.5 83.67 159.5 45.84 151.15 45.84"/><polyline points="123 60.87 123.31 62.54 131.09 83.67 134.5 83.67 145.12 45.84 136.92 45.84 131.82 65.72 131.56 67.86 131.15 65.72 124.34 45.84 121.66 45.84 114.91 65.72 114.5 67.86 114.19 65.72 109.14 45.84 100.94 45.84 111.56 83.67 114.96 83.67 122.74 62.54 123 60.87"/></svg>