<svg id="logos" xmlns="http://www.w3.org/2000/svg" width="300" height="130" viewBox="0 0 300 130"><defs><style>.cls-1{fill:#ed1c24;}</style></defs><title>swissbilling-logo</title><path id="Fill-1" class="cls-1" d="M30.61,73.24a12.75,12.75,0,0,0,5.84,1.86c3.19,0,4.78-1.6,4.78-3.72s-1.32-3.46-4.51-4.52c-4.52-1.59-6.64-4.25-6.64-7.17,0-4,3.18-7.18,8.5-7.18a12,12,0,0,1,6.11,1.6l-.8,3.19A11.66,11.66,0,0,0,38.58,56c-2.66,0-4,1.33-4,3.19,0,2.12,1.33,2.92,4.78,4.25C43.62,65,46,67.13,46,70.84c0,4.26-3.46,7.44-9.3,7.44a16.49,16.49,0,0,1-6.91-1.59l.8-3.45Z"/><path id="Fill-3" class="cls-1" d="M53.45,53.05,56.64,65.8c.8,2.65,1.33,5.31,1.86,8h.27c.53-2.39,1.33-5.32,2.12-8l4-12.75H68.6l4,12.48c.8,2.92,1.6,5.58,2.13,8.24H75c.53-2.39,1.07-5,1.86-8l3.46-12.49h4.78l-8,25H72.85L69.13,66.06A73.25,73.25,0,0,1,67,57.83h0c-.79,2.92-1.59,5.58-2.39,8.23l-4,11.69H56.38l-7.44-24.7Z"/><path id="Fill-5" class="cls-1" d="M89.58,77.75H94.1V53.05H89.58Zm5-31.61c0,1.59-1.06,2.65-2.92,2.65a2.66,2.66,0,0,1-2.66-2.65A2.79,2.79,0,0,1,92,43.22a2.72,2.72,0,0,1,2.65,2.92Z"/><path id="Fill-7" class="cls-1" d="M101,73.24a12.87,12.87,0,0,0,6.11,1.86c3.19,0,4.78-1.6,4.78-3.72s-1.33-3.46-4.52-4.52c-4.51-1.59-6.64-4-6.64-7.17,0-4,3.19-7.18,8.5-7.18a12,12,0,0,1,6.11,1.6l-1.06,3.19A11.4,11.4,0,0,0,109.24,56c-2.65,0-4.25,1.59-4.25,3.45,0,2.13,1.6,2.92,4.78,4.25,4.25,1.6,6.65,3.72,6.65,7.44,0,4.25-3.46,7.44-9.3,7.44a16.49,16.49,0,0,1-6.91-1.6Z"/><path id="Fill-8" class="cls-1" d="M121.46,73.24a12.87,12.87,0,0,0,6.11,1.86c3.19,0,4.79-1.6,4.79-3.72s-1.33-3.46-4.52-4.52c-4.52-1.59-6.64-4-6.64-7.17,0-4,3.19-7.18,8.5-7.18a12,12,0,0,1,6.11,1.6l-1.06,3.19A11.48,11.48,0,0,0,129.7,56c-2.66,0-4.25,1.59-4.25,3.45,0,2.13,1.59,2.92,4.78,4.25,4.25,1.6,6.64,3.72,6.64,7.44,0,4.25-3.45,7.44-9.3,7.44a16.48,16.48,0,0,1-6.9-1.6Z"/><path id="Fill-9" class="cls-1" d="M147.23,67.92a3.36,3.36,0,0,0,.27,1.6,6.89,6.89,0,0,0,6.91,5.31c4.78,0,7.7-4,7.7-9.56,0-5-2.66-9.3-7.44-9.3a7.05,7.05,0,0,0-6.91,5.58c0,.53-.26,1.06-.26,1.86v4.51Zm-4.78,9.83c0-1.59.27-4.25.27-6.37v-30h4.51V57h0a9.53,9.53,0,0,1,8.5-4.52c6.11,0,10.63,5.05,10.63,12.76,0,8.76-5.58,13.28-11.16,13.28-3.72,0-6.37-1.33-8.23-4.78h-.27l-.26,4Z"/><path id="Fill-10" class="cls-1" d="M171.94,77.75h4.52V53.05h-4.52ZM177,46.14c0,1.59-1.07,2.65-2.93,2.65a2.65,2.65,0,0,1-2.65-2.65,2.78,2.78,0,0,1,2.92-2.92A2.73,2.73,0,0,1,177,46.14Z"/><polygon id="Fill-11" class="cls-1" points="184.16 77.75 188.68 77.75 188.68 41.36 184.16 41.36 184.16 77.75"/><polygon id="Fill-12" class="cls-1" points="196.38 77.75 200.9 77.75 200.9 41.36 196.38 41.36 196.38 77.75"/><path id="Fill-13" class="cls-1" d="M208.6,77.75h4.52V53.05H208.6Zm5.05-31.61c0,1.59-1.06,2.65-2.92,2.65a2.65,2.65,0,0,1-2.66-2.65A2.78,2.78,0,0,1,211,43.22a2.72,2.72,0,0,1,2.66,2.92Z"/><path id="Fill-14" class="cls-1" d="M220.55,59.69a50.14,50.14,0,0,0-.26-6.64h4l.27,4h0a9.47,9.47,0,0,1,8.24-4.78c3.45,0,8.76,2.12,8.76,10.62V77.75H237V63.67c0-4-1.6-7.44-5.85-7.44a6.64,6.64,0,0,0-6.11,4.52,5.27,5.27,0,0,0-.26,2.12V77.75h-4.26Z"/><path id="Fill-15" class="cls-1" d="M266,62.87a6,6,0,0,0-.26-2.12A6.38,6.38,0,0,0,259.34,56c-4.25,0-7.44,3.72-7.44,9.3,0,4.78,2.39,9,7.44,9a6.9,6.9,0,0,0,6.38-4.52,7.5,7.5,0,0,0,.26-2.39Zm4.78-9.82c0,1.85-.26,3.71-.26,6.9V74.3c0,5.58-1.06,9.3-3.45,11.42-2.4,2.39-5.85,2.92-9,2.92-2.92,0-6.37-.79-8.23-2.12l1.06-3.46a13.8,13.8,0,0,0,7.44,1.86c4.78,0,8-2.39,8-8.76V73.5h0c-1.33,2.39-4,4.25-8,4.25-6.11,0-10.63-5.31-10.63-12.22,0-8.5,5.58-13.28,11.16-13.28a8.55,8.55,0,0,1,7.7,4.25h0l.27-3.72h4Z"/></svg>