<svg id="logos" xmlns="http://www.w3.org/2000/svg" width="300" height="130" viewBox="0 0 300 130"><defs><style>.cls-1{fill:#0080c8;}.cls-2{fill:#87888a;}</style></defs><title>coinbase-logo</title><path id="_252509248" data-name=" 252509248" class="cls-1" d="M32.81,77.2V74.53a1.13,1.13,0,0,0-.45-.89,4.29,4.29,0,0,1-1.78-4.24V66.06a4.59,4.59,0,0,1,1.78-4,.81.81,0,0,0,.45-1.11v-.23a1.34,1.34,0,0,1-.22-.89V54.48A3.57,3.57,0,0,1,33.7,52a9,9,0,0,1,4.68-2.67,29.53,29.53,0,0,1,20,.45c.89.44,1.56.89,2.45,1.33a4.21,4.21,0,0,1,2.23,4.24v3.56a4.59,4.59,0,0,1-1.78,4,.82.82,0,0,0-.45,1.12v.22a2.43,2.43,0,0,1,.22,1.11v5.13a1.17,1.17,0,0,0,.45.89,4.43,4.43,0,0,1,1.78,4.23V79a4.57,4.57,0,0,1-1.78,4,15,15,0,0,1-6,2.9,28.19,28.19,0,0,1-17.15-.67,19.21,19.21,0,0,1-4-2.45,3.85,3.85,0,0,1-1.56-3.56v-2ZM48.4,58.71h0c1.12-.22,2.9-.22,4.68-.67a12.15,12.15,0,0,0,5.57-2.23,2.21,2.21,0,0,0,1.12-2.89,2.63,2.63,0,0,0-1.12-1.12A11.56,11.56,0,0,0,55.31,50a29.8,29.8,0,0,0-14-.22,10.16,10.16,0,0,0-4.91,2.45,2.17,2.17,0,0,0-.22,3.12l.22.22a8.11,8.11,0,0,0,2.23,1.56,24.6,24.6,0,0,0,9.8,1.56Zm-14,4.23h0a2.09,2.09,0,0,0-.22,2.9l.44.44a8,8,0,0,0,3.34,1.79,28.07,28.07,0,0,0,16,0,14.18,14.18,0,0,0,3.12-1.79,4.37,4.37,0,0,0,.67-1.11L57.54,65a26.86,26.86,0,0,1-11.81,1.56A20.74,20.74,0,0,1,34.37,62.94Zm3.12,13.37h0a6.76,6.76,0,0,0,2.23,1.11,24.75,24.75,0,0,0,10.69,1.12A18.42,18.42,0,0,0,57.32,77a6.42,6.42,0,0,0,2.23-2,1.44,1.44,0,0,0,.22-2c-6.91,5.12-14.48,4.9-22.28,3.34Z"/><path id="_252673112" data-name=" 252673112" class="cls-2" d="M89.93,82.43c-6,0-11.78-4.22-11.78-14s5.78-14,11.78-14a14.48,14.48,0,0,1,6.9,1.78l-1.78,4a8,8,0,0,0-4.45-1.33c-3.56,0-6.89,2.89-6.89,9.34S87,77.77,90.6,77.77a8,8,0,0,0,4.45-1.34l1.78,4A9.67,9.67,0,0,1,89.93,82.43Zm21.79,0c-7.56,0-11.78-6-11.78-14s4.22-14,11.78-14,11.78,6,11.78,14S119.28,82.43,111.72,82.43Zm0-23.56h0c-4.22,0-6.22,3.78-6.22,9.56s2,9.56,6.22,9.56S118,74.21,118,68.43,115.94,58.87,111.72,58.87ZM132,50.42a2.85,2.85,0,0,1-2.89-3.11c.22-1.56,1.56-3.33,3.34-3.11a3,3,0,0,1,2.89,3.11A3.23,3.23,0,0,1,132,50.42Zm-2.67,4.67h5.56V81.77h-5.56Zm28.24,26.68V64c0-3.11-1.78-5.11-5.56-5.11a11.89,11.89,0,0,0-4.89.89V82h-5.56V56.42a23.09,23.09,0,0,1,10.23-1.77c7.55,0,11.11,3.33,11.11,8.89V82l-5.33-.22Zm21.12.66a24.43,24.43,0,0,1-8.9-1.77V43.09h5.34V56a13.12,13.12,0,0,1,5.11-1.11c6.89,0,11.56,4.89,11.56,13.11.22,10-5.11,14.45-13.11,14.45Zm.66-23.34h0a9,9,0,0,0-4.22.89V77.54a11.12,11.12,0,0,0,3.78.67c4.22,0,7.56-2.89,7.56-9.78,0-6-2.67-9.34-7.12-9.34Zm29.13,23.34c-7.79,0-11.56-3.11-11.56-8.44,0-7.34,8-8.9,16-9.34V62.87c0-3.33-2.22-4.67-5.78-4.67a20.6,20.6,0,0,0-7.33,1.56L198.42,56a22.61,22.61,0,0,1,9.34-1.78c6.45,0,10.22,2.45,10.22,9.12V80.21a16,16,0,0,1-9.55,2.22Zm4.44-14h0C207.31,68.65,202,69.1,202,74c0,2.89,2.22,4.67,6.22,4.67a17.06,17.06,0,0,0,4.67-.67Zm18.68,14a20.27,20.27,0,0,1-8.23-1.77l1.78-4.23a16.41,16.41,0,0,0,6.45,1.78c2.89,0,4.89-1.56,4.89-3.78s-2-3.33-4.67-4.44C228,68.65,224,67.1,224,62c0-4.44,3.33-7.56,9.33-7.56a19,19,0,0,1,7.78,1.78L239.33,60a12.29,12.29,0,0,0-5.56-1.55c-2.89,0-4.45,1.55-4.45,3.33,0,2.45,2,3.33,4.67,4.22,3.78,1.34,7.78,2.89,7.78,8.23.22,5.11-3.56,8.22-10.22,8.22Zm38.23-14L252,70.87a7.64,7.64,0,0,0,7.78,7.34h.44a16,16,0,0,0,7.34-1.56l1.56,4a19.44,19.44,0,0,1-9.34,1.77c-8.45,0-13.12-5.33-13.12-14,0-8.23,4.67-14,12-14,6.89,0,11.11,4.67,11.11,11.79v2.22Zm-11.11-9.78h0c-4.23,0-6.89,3.11-7.12,8.67l12.9-1.78c0-4.67-2.23-6.89-5.78-6.89Z"/></svg>